<svg width="15" height="14" viewBox="0 0 15 14" fill="none" xmlns="http://www.w3.org/2000/svg">
<path d="M13.2383 1.38672C14.2285 2.37695 14.2285 3.97656 13.2383 4.9668L10.6738 7.53125L10.9023 7.78516C11.2324 8.08984 11.2324 8.62305 10.9023 8.92773C10.5977 9.25781 10.0645 9.25781 9.75977 8.92773L5.69727 4.86523C5.36719 4.56055 5.36719 4.02734 5.69727 3.72266C6.00195 3.39258 6.53516 3.39258 6.83984 3.72266L7.09375 3.95117L9.6582 1.38672C10.6484 0.396484 12.248 0.396484 13.2383 1.38672ZM2.39648 8.85156L5.46875 5.7793L6.61133 6.92188L3.53906 9.99414C3.46289 10.0703 3.4375 10.1719 3.4375 10.2734V11.1875H4.35156C4.45312 11.1875 4.55469 11.1621 4.63086 11.0859L7.70312 8.01367L8.8457 9.15625L5.77344 12.2285C5.39258 12.6094 4.88477 12.8125 4.35156 12.8125H3.25977L2.24414 13.498C1.93945 13.7266 1.50781 13.6758 1.22852 13.3965C0.949219 13.1172 0.898438 12.6855 1.12695 12.3809L1.8125 11.3652V10.2734C1.8125 9.74023 2.01562 9.23242 2.39648 8.85156Z" fill="white"/>
</svg>
