<svg width="201" height="40" viewBox="0 0 201 40" fill="none" xmlns="http://www.w3.org/2000/svg">
<g clip-path="url(#clip0_3982_4978)">
<path d="M38.3939 39.8758L0 32.7453V28.4531L38.3939 30.1284V39.8758Z" fill="url(#paint0_linear_3982_4978)"/>
<path d="M32.8833 14.4688L5.5105 21.5716V25.1299L32.8833 22.9284V14.4688Z" fill="url(#paint1_linear_3982_4978)"/>
<path d="M27.3727 1.49609L11.021 13.5695V16.4355L27.3727 9.36041V1.49609Z" fill="url(#paint2_linear_3982_4978)"/>
<path d="M200.249 5.69055V9.48425H196.982V21.4607H192.856V9.48425H189.588V5.69055H192.856V1.48148H196.982V5.69055H200.249ZM57.7917 6.02285C56.8502 6.46591 56.0886 7.07511 55.4794 7.85047V5.69055H51.3396V21.4607H55.4794V11.3396C55.7702 10.6611 56.2271 10.1211 56.8778 9.73347C57.5286 9.34579 58.3039 9.15196 59.1901 9.15196C61.0038 9.15196 61.9177 10.3842 61.9177 12.8626V21.4607H66.0575V11.1319C66.0575 9.38733 65.5037 7.98892 64.396 6.93666C63.2884 5.88439 62.0146 5.34441 60.5885 5.34441C59.6608 5.34441 58.7332 5.56594 57.7917 6.009V6.02285ZM98.387 5.35826V9.47041C96.6286 9.47041 95.341 9.94116 94.5103 10.8827C93.6934 11.8242 93.278 12.9318 93.278 14.2056V21.4607H89.1381V5.69055H93.278V7.96123C93.8457 7.14434 94.5795 6.50744 95.4794 6.05054C96.3794 5.59363 97.3486 5.35826 98.387 5.35826ZM115.777 0H119.917V7.85047C120.526 7.07511 121.302 6.46591 122.243 6.02285C123.185 5.57979 124.126 5.35826 125.054 5.35826C126.494 5.35826 127.754 5.88439 128.847 6.9505C129.941 8.00277 130.495 9.40118 130.495 11.1457V21.4746H126.355V12.8764C126.355 10.3981 125.441 9.1658 123.628 9.1658C122.741 9.1658 121.966 9.35964 121.315 9.74732C120.665 10.135 120.194 10.675 119.917 11.3534V21.4746H115.777V0ZM132.835 5.69055H136.975L140.035 14.9117L142.07 5.69055H145.753L147.788 14.9117L150.876 5.69055H154.988L149.713 21.4607H145.573L143.898 13.9425L142.222 21.4607H138.082L132.807 5.69055H132.835ZM164.555 5.34441C166.618 5.34441 168.349 6.03669 169.761 7.4351C171.173 8.81966 171.88 10.8134 171.88 13.4026C171.88 13.9702 171.866 14.3994 171.824 14.7041H160.54C160.734 15.7425 161.191 16.5732 161.911 17.1824C162.645 17.7916 163.503 18.1101 164.5 18.1101C165.995 18.1101 167.131 17.4732 167.906 16.2132L171.45 17.9993C170.73 19.19 169.761 20.1315 168.557 20.81C167.352 21.4884 165.995 21.8345 164.5 21.8345C162.188 21.8345 160.263 21.0592 158.712 19.5085C157.162 17.9578 156.386 15.9778 156.386 13.5826C156.386 11.1873 157.176 9.20734 158.74 7.67047C160.305 6.13361 162.243 5.35826 164.555 5.35826V5.34441ZM164.5 9.02734C163.683 9.02734 162.949 9.24887 162.285 9.69193C161.62 10.135 161.135 10.7442 160.817 11.5196H167.74C167.74 10.938 167.491 10.3704 166.992 9.83039C166.494 9.29041 165.663 9.02734 164.514 9.02734H164.5ZM187.345 16.7947C187.345 18.4562 186.777 19.7162 185.656 20.5469C184.534 21.3915 182.956 21.8069 180.935 21.8069C179.799 21.8069 178.705 21.6546 177.626 21.3499C176.559 21.0453 175.77 20.7407 175.286 20.4361L174.552 19.9792L176.255 16.8086C176.407 16.9055 176.629 17.0301 176.906 17.1963C177.182 17.3624 177.736 17.5701 178.553 17.8193C179.37 18.0685 180.159 18.207 180.935 18.207C181.876 18.207 182.513 18.0824 182.845 17.8332C183.178 17.5839 183.344 17.2516 183.344 16.8363C183.344 16.4209 183.053 16.0609 182.485 15.7702C181.904 15.4794 181.212 15.2025 180.381 14.9671C179.55 14.7317 178.733 14.441 177.916 14.1225C177.099 13.8041 176.393 13.3195 175.812 12.6826C175.23 12.0457 174.953 11.2565 174.953 10.3288C174.953 8.73659 175.549 7.51817 176.739 6.6459C177.93 5.77362 179.356 5.34441 181.018 5.34441C182.042 5.34441 183.025 5.49671 183.981 5.81516C184.936 6.13361 185.628 6.43821 186.071 6.77051L186.722 7.22741L185.102 10.2873C184.964 10.1904 184.784 10.0796 184.562 9.92731C184.341 9.78885 183.856 9.59502 183.15 9.34579C182.43 9.09657 181.724 8.97196 181.018 8.97196C179.661 8.97196 178.982 9.37349 178.982 10.1627C178.982 10.4811 179.273 10.7719 179.841 11.0211C180.422 11.2703 181.115 11.5334 181.945 11.7688C182.762 12.018 183.579 12.3088 184.396 12.6549C185.213 13.001 185.905 13.5272 186.487 14.2333C187.068 14.9394 187.345 15.784 187.345 16.7809V16.7947ZM111.942 5.69055V9.48425H108.66V21.4607H104.548V9.48425H101.281V5.69055H104.548V1.48148H108.66V5.69055H111.942ZM85.7183 13.5826C85.7183 18.1378 82.0353 21.8207 77.4801 21.8207C72.9249 21.8207 69.242 18.1378 69.242 13.5826C69.242 9.02735 72.9249 5.34441 77.4801 5.34441C82.0353 5.34441 85.7183 9.02735 85.7183 13.5826ZM77.4801 9.02734C74.9741 9.02734 72.9249 11.0627 72.9249 13.5826C72.9249 16.1025 74.9602 18.1378 77.4801 18.1378C80 18.1378 82.0353 16.1025 82.0353 13.5826C82.0353 11.0627 80 9.02734 77.4801 9.02734Z" fill="#5D407F"/>
<path d="M55.3548 30.4066C56.144 30.4066 56.8778 30.5727 57.5563 30.8912C58.2347 31.2096 58.7747 31.6527 59.2039 32.2204L57.5701 33.4803C57.0301 32.788 56.2963 32.4419 55.341 32.4419C54.5518 32.4419 53.8872 32.705 53.3611 33.2173C52.8349 33.7295 52.5719 34.3941 52.5719 35.1972C52.5719 36.0002 52.8349 36.6648 53.3611 37.1771C53.8872 37.6894 54.5518 37.9525 55.341 37.9525C56.2686 37.9525 57.0163 37.5925 57.5701 36.8863L59.2039 38.1601C58.7747 38.7417 58.2209 39.1847 57.5563 39.5032C56.8778 39.8216 56.144 39.9878 55.3548 39.9878C53.9841 39.9878 52.8349 39.5447 51.9073 38.6447C50.9935 37.7448 50.5227 36.5956 50.5227 35.1972C50.5227 33.7988 50.9796 32.6496 51.9073 31.7496C52.8211 30.8497 53.9703 30.4066 55.3548 30.4066ZM66.1406 30.5589H68.5497L72.1496 39.8216H69.9066L69.2835 38.1463H65.4206L64.7975 39.8216H62.5545L66.1544 30.5589H66.1406ZM67.3451 33.0234L66.099 36.3464H68.5912L67.3451 33.0234ZM75.694 30.5589H78.8093C80.1108 30.5589 81.08 30.822 81.7169 31.3619C82.3538 31.9019 82.6722 32.6081 82.6722 33.508C82.6722 34.7126 82.1461 35.5572 81.08 36.0418L83.0322 39.8216H80.9L79.3354 36.4433C79.2247 36.4433 79.0447 36.4571 78.7955 36.4571H77.757V39.8216H75.6802V30.5589H75.694ZM77.7709 32.3588V34.6572H78.8093C79.4877 34.6572 79.9862 34.5741 80.3185 34.3941C80.6508 34.2141 80.8031 33.9234 80.8031 33.4942C80.8031 33.065 80.6369 32.7604 80.3185 32.5942C79.9862 32.4281 79.4877 32.345 78.8093 32.345H77.7709V32.3588ZM86.7982 39.8216V30.5589H93.3334V32.3588H88.8751V34.2834H92.8903V36.0971H88.8751V38.0217H93.3334V39.8216H86.7982ZM97.2655 39.8216V30.5589H103.801V32.3588H99.3424V34.2834H103.358V36.0971H99.3424V38.0217H103.801V39.8216H97.2655ZM107.733 30.5589H110.848C112.15 30.5589 113.119 30.822 113.756 31.3619C114.393 31.9019 114.711 32.6081 114.711 33.508C114.711 34.7126 114.185 35.5572 113.119 36.0418L115.071 39.8216H112.939L111.374 36.4433C111.263 36.4433 111.083 36.4571 110.834 36.4571H109.796V39.8216H107.719V30.5589H107.733ZM109.81 32.3588V34.6572H110.848C111.527 34.6572 112.025 34.5741 112.357 34.3941C112.69 34.2141 112.842 33.9234 112.842 33.4942C112.842 33.065 112.676 32.7604 112.357 32.5942C112.025 32.4281 111.527 32.345 110.848 32.345H109.81V32.3588ZM129.609 30.4066C130.398 30.4066 131.132 30.5727 131.81 30.8912C132.489 31.2096 133.029 31.6527 133.458 32.2204L131.824 33.4803C131.284 32.788 130.55 32.4419 129.595 32.4419C128.806 32.4419 128.141 32.705 127.615 33.2173C127.089 33.7295 126.826 34.3941 126.826 35.1972C126.826 36.0002 127.089 36.6648 127.615 37.1771C128.141 37.6894 128.806 37.9525 129.595 37.9525C130.523 37.9525 131.27 37.5925 131.824 36.8863L133.458 38.1601C133.029 38.7417 132.475 39.1847 131.81 39.5032C131.132 39.8216 130.398 39.9878 129.609 39.9878C128.238 39.9878 127.089 39.5447 126.161 38.6447C125.248 37.7448 124.777 36.5956 124.777 35.1972C124.777 33.7988 125.234 32.6496 126.161 31.7496C127.075 30.8497 128.224 30.4066 129.609 30.4066ZM138.359 31.7496C139.273 30.8497 140.422 30.4066 141.807 30.4066C143.191 30.4066 144.327 30.8635 145.241 31.7496C146.154 32.6357 146.611 33.7988 146.611 35.1972C146.611 36.5956 146.154 37.7448 145.241 38.6447C144.327 39.5447 143.178 39.9878 141.807 39.9878C140.436 39.9878 139.287 39.5447 138.359 38.6447C137.446 37.7448 136.975 36.5956 136.975 35.1972C136.975 33.7988 137.432 32.6496 138.359 31.7496ZM143.787 33.2173C143.261 32.705 142.596 32.4419 141.807 32.4419C141.018 32.4419 140.353 32.705 139.827 33.2173C139.301 33.7295 139.038 34.3941 139.038 35.1972C139.038 36.0002 139.301 36.6648 139.827 37.1771C140.353 37.6894 141.018 37.9525 141.807 37.9525C142.596 37.9525 143.261 37.6894 143.787 37.1771C144.313 36.6648 144.576 36.0002 144.576 35.1972C144.576 34.3941 144.313 33.7295 143.787 33.2173ZM150.363 30.5589H152.44V38.0217H156.123V39.8216H150.363V30.5589ZM159.654 30.5589H161.731V38.0217H165.414V39.8216H159.654V30.5589ZM168.944 39.8216V30.5589H175.479V32.3588H171.021V34.2834H175.036V36.0971H171.021V38.0217H175.479V39.8216H168.944ZM184.022 30.3928C184.811 30.3928 185.545 30.5589 186.224 30.8773C186.888 31.1958 187.442 31.6389 187.885 32.2204L186.251 33.4803C185.711 32.788 184.978 32.4419 184.022 32.4419C183.233 32.4419 182.568 32.705 182.042 33.2173C181.516 33.7295 181.253 34.3941 181.253 35.1972C181.253 36.0002 181.516 36.6648 182.042 37.1771C182.568 37.6894 183.219 37.9525 184.022 37.9525C184.991 37.9525 185.725 37.7032 186.251 37.191V36.1941H184.645V34.7264H188.065V38.174C187.622 38.7278 187.054 39.1847 186.321 39.5032C185.587 39.8216 184.839 40.0016 184.036 40.0016C182.665 40.0016 181.516 39.5447 180.588 38.6447C179.675 37.7448 179.204 36.5956 179.204 35.1972C179.204 33.7988 179.661 32.6496 180.588 31.7358C181.502 30.8358 182.651 30.3789 184.036 30.3789L184.022 30.3928ZM191.997 39.8216V30.5589H198.532V32.3588H194.074V34.2834H198.089V36.0971H194.074V38.0217H198.532V39.8216H191.997Z" fill="#138D9A"/>
</g>
<defs>
<linearGradient id="paint0_linear_3982_4978" x1="0" y1="34.1714" x2="38.3939" y2="34.1714" gradientUnits="userSpaceOnUse">
<stop stop-color="#583775"/>
<stop offset="0.29" stop-color="#415685"/>
<stop offset="0.76" stop-color="#1F869D"/>
<stop offset="1" stop-color="#1299A7"/>
</linearGradient>
<linearGradient id="paint1_linear_3982_4978" x1="5.5105" y1="19.7993" x2="32.8833" y2="19.7993" gradientUnits="userSpaceOnUse">
<stop stop-color="#583775"/>
<stop offset="0.29" stop-color="#415685"/>
<stop offset="0.76" stop-color="#1F869D"/>
<stop offset="1" stop-color="#1299A7"/>
</linearGradient>
<linearGradient id="paint2_linear_3982_4978" x1="11.021" y1="8.95888" x2="27.3727" y2="8.95888" gradientUnits="userSpaceOnUse">
<stop stop-color="#583775"/>
<stop offset="0.29" stop-color="#415685"/>
<stop offset="0.76" stop-color="#1F869D"/>
<stop offset="1" stop-color="#1299A7"/>
</linearGradient>
<clipPath id="clip0_3982_4978">
<rect width="200.249" height="40" fill="white"/>
</clipPath>
</defs>
</svg>
